<?xml version="1.0" encoding="utf-8"?>
<!-- Generator: Adobe Illustrator 21.0.0, SVG Export Plug-In . SVG Version: 6.00 Build 0)  -->
<svg version="1.1" id="Layer_1" xmlns="http://www.w3.org/2000/svg" xmlns:xlink="http://www.w3.org/1999/xlink" x="0px" y="0px"
	 viewBox="0 0 95 85.9" style="enable-background:new 0 0 95 85.9;" xml:space="preserve">
<style type="text/css">
	.st0{fill:#FFFFFF;}
	.st1{fill:#344551;}
	.st2{fill:#F2D73D;}
	.st3{opacity:0.8;}
	.st4{opacity:0.8;fill:#344551;}
	.st5{font-family:'EgonSansBlack';}
	.st6{font-size:55.5889px;}
</style>
<g>
	<g>
		<path class="st2" d="M47.5,81.5c-21.2,0-38.6-17.4-38.6-38.6S26.3,4.4,47.5,4.4s38.6,17.4,38.6,38.6S68.7,81.5,47.5,81.5z"/>
		<path class="st0" d="M47.5,8.6c19.1,0,34.3,15.5,34.3,34.3S66.6,77.3,47.5,77.3S13.2,61.8,13.2,42.9S28.4,8.6,47.5,8.6 M47.5,0.1
			C24,0.1,4.7,19.4,4.7,42.9S24,85.7,47.5,85.7s42.8-19.3,42.8-42.8S71,0.1,47.5,0.1L47.5,0.1z"/>
	</g>
	<text transform="matrix(1 0 0 1 38.6272 62.5717)" class="st0 st5 st6">1</text>
</g>
</svg>
