<?xml version="1.0" encoding="utf-8"?>
<!-- Generator: Adobe Illustrator 21.0.0, SVG Export Plug-In . SVG Version: 6.00 Build 0)  -->
<svg version="1.1" id="Layer_1" xmlns="http://www.w3.org/2000/svg" xmlns:xlink="http://www.w3.org/1999/xlink" x="0px" y="0px"
	 viewBox="0 0 144.5 85.9" style="enable-background:new 0 0 144.5 85.9;" xml:space="preserve">
<style type="text/css">
	.st0{opacity:0.8;}
	.st1{fill:#344551;}
	.st2{fill:#F2D73D;}
	.st3{fill:#FFFFFF;}
	.st4{font-family:'EgonSansBlack';}
	.st5{font-size:55.5889px;}
</style>
<g class="st0">
	<g>
		<path class="st1" d="M15.2,65.7H3.8c-2.1,0-3.8,1.7-3.8,3.8v11.4c0,2.1,1.7,3.8,3.8,3.8h11.4c2.1,0,3.8-1.7,3.8-3.8V69.5
			C19,67.5,17.3,65.7,15.2,65.7L15.2,65.7z"/>
	</g>
	<g>
		<path class="st1" d="M91.2,65.7H32.3c-2.1,0-3.8,1.7-3.8,3.8v11.4c0,2.1,1.7,3.8,3.8,3.8h58.9c2.1,0,3.8-1.7,3.8-3.8V69.5
			C95,67.5,93.3,65.7,91.2,65.7L91.2,65.7z"/>
	</g>
	<g>
		<path class="st1" d="M15.2,33.4H3.8c-2.1,0-3.8,1.7-3.8,3.8v11.4c0,2.1,1.7,3.8,3.8,3.8h11.4c2.1,0,3.8-1.7,3.8-3.8V37.2
			C19,35.2,17.3,33.4,15.2,33.4L15.2,33.4z"/>
	</g>
	<g>
		<path class="st1" d="M91.2,33.4H32.3c-2.1,0-3.8,1.7-3.8,3.8v11.4c0,2.1,1.7,3.8,3.8,3.8h58.9c2.1,0,3.8-1.7,3.8-3.8V37.2
			C95,35.2,93.3,33.4,91.2,33.4L91.2,33.4z"/>
	</g>
	<g>
		<path class="st1" d="M15.2,1.1H3.8C1.7,1.1,0,2.9,0,4.9v11.4c0,2.1,1.7,3.8,3.8,3.8h11.4c2.1,0,3.8-1.7,3.8-3.8V4.9
			C19,2.9,17.3,1.1,15.2,1.1L15.2,1.1z"/>
	</g>
	<g>
		<path class="st1" d="M91.2,1.1H32.3c-2.1,0-3.8,1.7-3.8,3.8v11.4c0,2.1,1.7,3.8,3.8,3.8h58.9c2.1,0,3.8-1.7,3.8-3.8V4.9
			C95,2.9,93.3,1.1,91.2,1.1L91.2,1.1z"/>
	</g>
</g>
<g>
	<g>
		<path class="st2" d="M101.7,81.4c-21.2,0-38.6-17.4-38.6-38.6S80.5,4.2,101.7,4.2s38.6,17.4,38.6,38.6S122.9,81.4,101.7,81.4z"/>
		<path class="st3" d="M101.7,8.5c19.1,0,34.3,15.5,34.3,34.3s-15.3,34.3-34.3,34.3S67.4,61.7,67.4,42.8S82.6,8.5,101.7,8.5
			 M101.7,0C78.2,0,58.9,19.3,58.9,42.8s19.3,42.8,42.8,42.8s42.8-19.3,42.8-42.8S125.2,0,101.7,0L101.7,0z"/>
	</g>
	<text transform="matrix(1 0 0 1 92.8301 62.4219)" class="st3 st4 st5">1</text>
</g>
</svg>
